<?xml version="1.0" standalone="no"?>
<!DOCTYPE svg PUBLIC "-//W3C//DTD SVG 20010904//EN"
 "http://www.w3.org/TR/2001/REC-SVG-20010904/DTD/svg10.dtd">
<svg version="1.0" xmlns="http://www.w3.org/2000/svg"
 width="2008.000000pt" height="768.000000pt" viewBox="0 0 2008.000000 768.000000"
 preserveAspectRatio="xMidYMid meet">

<g transform="translate(0.000000,768.000000) scale(0.100000,-0.100000)"
fill="#000000" stroke="none">
<path d="M2677 7213 c-4 -3 -7 -116 -7 -250 l0 -243 35 0 35 0 0 250 0 250
-28 0 c-16 0 -32 -3 -35 -7z"/>
<path d="M2274 7080 c-12 -4 -31 -21 -43 -36 l-21 -27 0 32 c0 28 -3 31 -30
31 l-30 0 0 -180 0 -180 29 0 28 0 5 108 c3 59 12 120 19 135 20 44 112 82 94
40 -28 -68 -29 -147 -3 -198 35 -68 104 -101 185 -89 53 8 108 53 119 97 6 24
3 27 -21 27 -17 0 -38 -12 -59 -35 -50 -52 -118 -45 -156 17 -35 57 -33 58
116 58 l137 0 -6 45 c-9 62 -42 122 -80 145 -47 29 -124 27 -171 -5 -20 -14
-39 -25 -41 -25 -3 0 -5 11 -5 25 0 27 -24 32 -66 15z m251 -66 c13 -8 28 -29
34 -45 l10 -29 -99 0 -99 0 11 30 c5 17 20 37 31 45 28 19 81 19 112 -1z"/>
<path d="M2904 7076 c-37 -16 -64 -51 -64 -83 0 -19 5 -23 30 -23 17 0 30 5
30 10 0 24 41 50 81 50 53 0 79 -15 79 -45 0 -31 -19 -41 -106 -56 -56 -10
-75 -18 -103 -46 -30 -30 -33 -38 -28 -76 7 -53 41 -83 102 -93 37 -5 55 -2
95 18 45 22 49 23 53 7 5 -20 48 -35 72 -25 20 7 20 56 0 56 -12 0 -15 20 -15
119 0 141 -8 167 -55 186 -43 19 -130 19 -171 1z m134 -273 c-32 -32 -90 -41
-123 -19 -54 36 -18 83 78 101 l62 11 3 -34 c3 -26 -3 -41 -20 -59z"/>
<path d="M4000 7083 c-8 -3 -23 -12 -32 -21 -16 -14 -18 -13 -18 1 0 13 -9 17
-35 17 l-35 0 2 -247 3 -248 33 -3 32 -3 0 93 c0 51 4 88 8 81 15 -24 84 -45
127 -39 94 15 139 75 140 186 0 74 -23 130 -68 164 -27 20 -125 32 -157 19z
m120 -81 c75 -75 33 -232 -62 -232 -65 0 -108 54 -108 135 0 78 38 124 103
125 29 0 45 -7 67 -28z"/>
<path d="M3391 6908 c38 -95 69 -179 69 -188 0 -8 -9 -30 -20 -47 -15 -26 -27
-33 -50 -33 -27 0 -30 -3 -30 -30 0 -28 2 -30 39 -30 67 0 82 23 170 250 105
275 99 250 59 250 l-34 0 -44 -127 c-23 -71 -46 -132 -50 -136 -4 -5 -29 53
-55 127 l-48 136 -37 0 -38 0 69 -172z"/>
<path d="M4261 6908 c38 -95 69 -179 69 -188 0 -8 -9 -30 -20 -47 -15 -26 -27
-33 -50 -33 -27 0 -30 -3 -30 -30 0 -28 2 -30 39 -30 67 0 82 23 170 250 105
275 99 250 59 250 l-34 0 -44 -127 c-23 -71 -46 -132 -50 -136 -4 -5 -29 53
-55 127 l-48 136 -37 0 -38 0 69 -172z"/>
<path d="M3720 6760 l0 -40 45 0 45 0 0 40 0 40 -45 0 -45 0 0 -40z"/>
<path d="M3290 5235 l0 -935 -1210 0 -1210 0 2 -1562 3 -1563 2463 -3 2462 -2
0 110 0 110 1595 0 c1588 0 1595 0 1595 20 0 20 -7 20 -1595 20 l-1595 0 0
1255 0 1255 2950 0 c2943 0 2950 0 2950 20 0 20 -7 20 -2950 20 l-2950 0 0
160 0 160 -1202 2 -1203 3 -3 933 -2 932 -50 0 -50 0 0 -935z m2400 -2495 l0
-1460 -2355 0 -2355 0 0 1460 0 1460 2355 0 2355 0 0 -1460z"/>
<path d="M1800 2800 l0 -250 35 0 34 0 3 113 3 112 125 0 125 0 3 -112 3 -113
34 0 35 0 0 250 0 250 -35 0 -35 0 0 -105 0 -105 -130 0 -130 0 0 105 0 105
-35 0 -35 0 0 -250z"/>
<path d="M3090 2965 l0 -85 -32 20 c-56 34 -146 24 -195 -22 l-23 -21 0 33 c0
32 -1 33 -37 27 -25 -4 -48 -17 -65 -37 l-28 -30 0 30 c0 27 -3 30 -30 30
l-30 0 0 -180 0 -180 29 0 28 0 5 108 c4 69 11 119 21 138 16 31 53 54 86 54
17 0 18 -3 5 -37 -39 -111 13 -238 109 -264 45 -12 100 -5 135 17 19 13 22 13
22 -1 0 -11 10 -15 35 -15 l35 0 0 250 0 250 -35 0 -35 0 0 -85z m-38 -130
c34 -31 42 -61 36 -127 -4 -42 -11 -57 -37 -80 -94 -84 -209 41 -156 169 20
47 41 62 90 63 29 0 48 -7 67 -25z"/>
<path d="M2374 2906 c-37 -16 -64 -51 -64 -83 0 -19 5 -23 30 -23 17 0 30 5
30 10 0 24 41 50 81 50 53 0 79 -15 79 -45 0 -31 -19 -41 -106 -56 -56 -10
-75 -18 -103 -46 -30 -30 -33 -38 -28 -76 7 -53 41 -83 102 -93 37 -5 55 -2
95 18 45 22 49 23 53 7 5 -20 48 -35 72 -25 20 7 20 56 0 56 -12 0 -15 20 -15
119 0 141 -8 167 -55 186 -43 19 -130 19 -171 1z m134 -273 c-32 -32 -90 -41
-123 -19 -54 36 -18 83 78 101 l62 11 3 -34 c3 -26 -3 -41 -20 -59z"/>
<path d="M3934 2906 c-37 -16 -64 -51 -64 -83 0 -19 5 -23 30 -23 17 0 30 5
30 10 0 24 41 50 81 50 53 0 79 -15 79 -45 0 -31 -19 -41 -106 -56 -56 -10
-75 -18 -103 -46 -30 -30 -33 -38 -28 -76 7 -53 41 -83 102 -93 37 -5 55 -2
95 18 45 22 49 23 53 7 5 -20 48 -35 72 -25 20 7 20 56 0 56 -12 0 -15 20 -15
119 0 141 -8 167 -55 186 -43 19 -130 19 -171 1z m134 -273 c-32 -32 -90 -41
-123 -19 -54 36 -18 83 78 101 l62 11 3 -34 c3 -26 -3 -41 -20 -59z"/>
<path d="M4334 2910 c-12 -4 -31 -21 -43 -36 l-21 -27 0 32 c0 28 -3 31 -30
31 l-30 0 0 -180 0 -180 29 0 28 0 5 108 c3 59 12 120 19 135 20 44 112 82 94
40 -28 -68 -29 -147 -3 -198 35 -68 104 -101 185 -89 53 8 108 53 119 97 6 24
3 27 -21 27 -17 0 -38 -12 -59 -35 -50 -52 -118 -45 -156 17 -35 57 -33 58
116 58 l137 0 -6 45 c-9 62 -42 122 -80 145 -47 29 -124 27 -171 -5 -20 -14
-39 -25 -41 -25 -3 0 -5 11 -5 25 0 27 -24 32 -66 15z m251 -66 c13 -8 28 -29
34 -45 l10 -29 -99 0 -99 0 11 30 c5 17 20 37 31 45 28 19 81 19 112 -1z"/>
<path d="M3322 2898 c3 -7 29 -89 58 -181 l54 -168 35 3 35 3 35 134 35 135
34 -138 35 -137 35 3 35 3 58 178 57 178 -36 -3 -36 -3 -37 -135 c-20 -74 -39
-128 -43 -120 -3 8 -15 53 -26 100 -44 176 -37 162 -77 158 l-37 -3 -32 -128
c-18 -71 -34 -130 -36 -132 -2 -2 -20 55 -39 128 l-36 132 -38 3 c-28 3 -36 0
-33 -10z"/>
<path d="M2478 2238 c-3 -84 -5 -93 -23 -97 -11 -2 -24 -9 -28 -17 -10 -17
-59 -18 -75 -2 -28 28 -13 38 54 38 l67 0 -7 33 c-9 46 -51 81 -89 73 -17 -4
-39 -14 -49 -22 -38 -36 -31 -131 13 -154 35 -19 86 -12 108 16 l20 26 7 -26
c6 -25 8 -26 85 -24 56 1 79 5 79 14 0 7 -4 16 -10 19 -5 3 -10 35 -10 71 0
61 -1 65 -27 75 -16 6 -38 8 -50 6 -20 -4 -23 0 -23 29 0 27 -4 34 -20 34 -18
0 -20 -8 -22 -92z m-56 -22 c15 -21 8 -26 -37 -26 -45 0 -52 5 -37 26 16 24
58 24 74 0z m157 15 c22 -14 6 -38 -28 -43 -27 -4 -31 -1 -31 18 0 19 8 26 40
33 3 0 11 -3 19 -8z m11 -79 c0 -25 -19 -42 -47 -42 -18 0 -23 6 -23 24 0 19
6 26 28 29 15 2 30 5 35 6 4 0 7 -7 7 -17z"/>
<path d="M3170 2204 c0 -114 2 -125 18 -122 11 2 18 14 20 38 5 54 17 56 51 6
20 -29 39 -46 52 -46 22 0 22 1 -24 68 l-29 44 33 34 c32 33 32 34 9 34 -13 0
-39 -14 -57 -32 l-33 -32 0 67 c0 60 -2 67 -20 67 -19 0 -20 -7 -20 -126z"/>
<path d="M3870 2205 c0 -104 2 -125 15 -125 11 0 15 12 15 49 0 63 13 97 40
106 37 12 50 -11 50 -86 0 -55 3 -69 15 -69 12 0 15 16 15 80 0 74 -2 81 -25
96 -24 16 -38 15 -77 -1 -15 -6 -18 -1 -18 34 0 30 -4 41 -15 41 -13 0 -15
-21 -15 -125z"/>
<path d="M4210 2309 c0 -25 33 -22 38 4 2 12 -3 17 -17 17 -15 0 -21 -6 -21
-21z"/>
<path d="M3530 2291 c0 -21 -5 -31 -15 -31 -8 0 -15 -7 -15 -15 0 -8 7 -15 15
-15 12 0 15 -14 15 -63 0 -36 5 -68 12 -75 17 -17 58 -15 58 3 0 8 -7 15 -15
15 -12 0 -15 13 -15 60 0 47 3 60 15 60 8 0 15 7 15 15 0 8 -6 15 -14 15 -9 0
-16 12 -18 27 -2 17 -10 29 -20 31 -14 3 -18 -3 -18 -27z"/>
<path d="M2192 2254 c-12 -8 -22 -10 -22 -5 0 6 -7 11 -15 11 -12 0 -15 -17
-15 -90 0 -73 3 -90 15 -90 11 0 15 12 15 48 0 58 18 96 48 100 14 2 22 10 22
23 0 23 -18 24 -48 3z"/>
<path d="M3023 2260 c-46 -19 -40 -71 10 -90 70 -26 78 -31 75 -43 -7 -18 -63
-21 -78 -3 -15 20 -40 21 -40 3 0 -25 36 -47 74 -47 53 0 76 15 76 49 0 33
-11 44 -62 60 -43 14 -57 29 -37 42 21 13 36 11 53 -7 9 -8 24 -14 34 -12 15
3 13 7 -10 31 -28 27 -56 33 -95 17z"/>
<path d="M3400 2263 c-66 -24 -79 -141 -19 -173 36 -20 86 -12 109 18 20 25
20 27 4 31 -9 1 -21 -4 -26 -13 -17 -31 -88 -14 -88 21 0 9 19 13 66 13 l67 0
-7 33 c-10 54 -60 87 -106 70z m62 -47 c15 -21 8 -26 -37 -26 -45 0 -52 5 -37
26 16 24 58 24 74 0z"/>
<path d="M3730 2258 c-35 -19 -52 -56 -46 -103 6 -49 35 -75 86 -75 37 0 60
17 73 53 9 25 -25 22 -41 -3 -14 -22 -51 -27 -70 -8 -7 7 -12 29 -12 50 0 28
6 41 24 53 25 17 51 12 60 -11 8 -21 36 -17 36 5 0 38 -66 61 -110 39z"/>
<path d="M4217 2263 c-4 -3 -7 -46 -7 -95 0 -81 2 -88 20 -88 18 0 20 7 20 70
0 65 2 71 25 82 41 18 55 -3 55 -83 0 -55 3 -69 15 -69 12 0 15 16 15 80 0 75
-2 81 -26 97 -21 13 -32 15 -55 6 -17 -7 -31 -7 -35 -2 -6 11 -18 12 -27 2z"/>
<path d="M4445 2263 c-51 -12 -78 -77 -55 -134 15 -36 37 -49 84 -49 44 0 72
26 81 73 6 33 -12 89 -32 100 -16 9 -59 14 -78 10z m53 -39 c43 -30 23 -114
-28 -114 -34 0 -50 23 -50 69 0 26 28 61 50 61 3 0 16 -7 28 -16z"/>
<path d="M2649 2213 c10 -27 27 -67 36 -90 18 -45 9 -83 -20 -83 -8 0 -15 -7
-15 -15 0 -27 48 -18 64 13 13 26 86 210 86 218 0 2 -8 4 -18 4 -14 0 -23 -15
-37 -60 -17 -55 -35 -87 -35 -61 0 6 -9 35 -21 66 -15 40 -26 55 -40 55 -18 0
-18 -1 0 -47z"/>
<path d="M4050 2100 c0 -13 7 -20 20 -20 13 0 20 7 20 20 0 13 -7 20 -20 20
-13 0 -20 -7 -20 -20z"/>
<path d="M2810 2050 c0 -6 37 -10 91 -10 57 0 88 4 84 10 -3 6 -44 10 -91 10
-49 0 -84 -4 -84 -10z"/>
<path d="M3889 5463 l-37 -4 -4 -93 c-4 -106 -14 -126 -64 -126 -51 0 -64 27
-64 132 0 81 -2 88 -20 88 -18 0 -20 -6 -19 -82 1 -121 16 -155 70 -167 19 -4
50 -3 69 1 44 11 47 11 90 0 72 -17 130 13 130 67 0 40 -13 51 -81 75 -55 19
-64 25 -64 46 0 22 5 25 42 28 38 3 44 0 55 -22 12 -29 38 -35 38 -10 0 28
-19 52 -51 63 -18 6 -37 10 -43 9 -6 -1 -27 -3 -47 -5z m63 -143 c72 -20 70
-80 -2 -80 -42 0 -75 23 -66 47 3 8 6 21 6 29 0 17 12 17 62 4z"/>
<path d="M4582 5457 c-6 -7 -20 -34 -31 -60 -28 -64 -24 -137 10 -202 25 -48
61 -79 44 -39 -19 49 -18 54 12 54 42 0 65 20 61 54 -3 31 -10 37 -72 61 -32
13 -37 17 -26 30 16 19 35 19 54 -1 9 -8 24 -14 34 -12 15 3 13 7 -10 31 -15
15 -36 27 -48 27 -21 0 -28 24 -10 35 12 8 13 35 1 35 -5 0 -13 -6 -19 -13z
m62 -187 c16 -16 -7 -32 -40 -28 -23 2 -30 9 -32 30 -3 26 -2 27 29 18 18 -5
37 -14 43 -20z"/>
<path d="M6517 5463 c-4 -3 -23 -6 -42 -5 l-35 1 0 -93 c0 -105 -11 -126 -68
-126 -48 0 -62 29 -62 132 0 81 -2 88 -20 88 -18 0 -20 -6 -19 -82 1 -121 16
-155 70 -167 19 -4 50 -3 69 2 44 11 57 11 100 0 71 -19 130 12 130 66 0 40
-13 51 -81 75 -55 19 -64 25 -64 46 0 22 5 25 42 28 38 3 44 0 55 -22 12 -29
38 -35 38 -10 0 28 -19 52 -51 63 -37 13 -53 14 -62 4z m80 -169 c21 -28 -1
-54 -47 -54 -48 0 -70 21 -70 65 l0 33 52 -14 c29 -7 58 -21 65 -30z"/>
<path d="M6875 5461 l-80 -6 -3 -122 -3 -123 79 0 c47 0 83 5 90 12 20 20 24
2 7 -37 -28 -69 6 -58 37 11 32 73 23 186 -20 252 -8 12 -17 21 -21 20 -3 -1
-42 -4 -86 -7z m59 -47 c12 -12 13 -20 6 -35 -8 -15 -22 -19 -60 -19 l-50 0 0
35 c0 35 0 35 44 35 27 0 51 -6 60 -16z m56 -75 c0 -16 -3 -17 -19 -7 -14 8
-16 14 -7 24 14 15 26 8 26 -17z m-41 -37 c7 -14 6 -25 -5 -40 -12 -18 -25
-22 -65 -22 l-49 0 0 40 0 40 55 0 c43 0 56 -4 64 -18z"/>
<path d="M4207 5453 c-4 -3 -7 -60 -7 -125 l0 -118 78 0 c65 0 82 3 100 20 28
27 30 85 3 102 -16 10 -17 14 -5 25 20 20 17 67 -4 86 -14 13 -37 17 -89 17
-38 0 -73 -3 -76 -7z m137 -39 c12 -12 13 -20 6 -35 -8 -15 -22 -19 -60 -19
l-50 0 0 35 c0 35 0 35 44 35 27 0 51 -6 60 -16z m15 -112 c7 -14 6 -25 -5
-40 -12 -18 -25 -22 -65 -22 l-49 0 0 40 0 40 55 0 c43 0 56 -4 64 -18z"/>
<path d="M5060 5439 c0 -25 33 -22 38 4 2 12 -3 17 -17 17 -15 0 -21 -6 -21
-21z"/>
<path d="M5240 5334 c0 -114 2 -125 18 -122 15 3 17 18 20 126 2 117 2 122
-18 122 -19 0 -20 -6 -20 -126z"/>
<path d="M4770 5393 c-66 -24 -79 -141 -19 -173 36 -20 86 -12 109 18 20 25
20 27 4 31 -9 1 -21 -4 -26 -13 -17 -31 -88 -14 -88 21 0 9 19 13 66 13 l67 0
-7 33 c-10 54 -60 87 -106 70z m62 -47 c15 -21 8 -26 -37 -26 -45 0 -52 5 -37
26 16 24 58 24 74 0z"/>
<path d="M4942 5384 c-12 -8 -22 -10 -22 -5 0 6 -7 11 -15 11 -12 0 -15 -17
-15 -90 0 -73 3 -90 15 -90 11 0 15 12 15 48 0 58 18 96 48 100 14 2 22 10 22
23 0 23 -18 24 -48 3z"/>
<path d="M5089 5393 c-25 -4 -27 -8 -31 -75 -8 -109 -9 -108 83 -106 56 1 79
5 79 14 0 7 -4 16 -10 19 -5 3 -10 35 -10 71 0 60 -2 65 -26 74 -25 10 -37 10
-85 3z m70 -32 c22 -14 6 -38 -28 -43 -27 -4 -31 -1 -31 18 0 19 8 26 40 33 3
0 11 -3 19 -8z m11 -79 c0 -25 -19 -42 -47 -42 -18 0 -23 6 -23 24 0 19 6 26
28 29 15 2 30 5 35 6 4 0 7 -7 7 -17z"/>
<path d="M5465 5393 c-51 -12 -78 -77 -55 -134 15 -36 37 -49 84 -49 44 0 72
26 81 73 6 33 -12 89 -32 100 -16 9 -59 14 -78 10z m53 -39 c43 -30 23 -114
-28 -114 -34 0 -50 23 -50 69 0 26 28 61 50 61 3 0 16 -7 28 -16z"/>
<path d="M5980 5393 c-66 -24 -79 -141 -19 -173 36 -20 86 -12 109 18 20 25
20 27 4 31 -9 1 -21 -4 -26 -13 -17 -31 -88 -14 -88 21 0 9 19 13 66 13 l67 0
-7 33 c-10 54 -60 87 -106 70z m62 -47 c15 -21 8 -26 -37 -26 -45 0 -52 5 -37
26 16 24 58 24 74 0z"/>
<path d="M6152 5384 c-12 -8 -22 -10 -22 -5 0 6 -7 11 -15 11 -12 0 -15 -17
-15 -90 0 -73 3 -90 15 -90 11 0 15 12 15 48 0 58 18 96 48 100 14 2 22 10 22
23 0 23 -18 24 -48 3z"/>
<path d="M5765 5303 c45 -120 60 -121 100 -11 17 45 32 86 33 90 2 4 -5 8 -16
8 -14 0 -22 -12 -31 -42 -30 -100 -31 -100 -55 -28 -17 49 -28 66 -43 68 -20
3 -20 0 12 -85z"/>
<path d="M12357 4104 c-19 -19 2 -24 108 -24 90 0 117 -3 121 -14 5 -12 9 -12
33 0 24 12 59 13 207 4 99 -5 233 -10 300 -10 66 0 169 -3 227 -6 l106 -7 0
-36 c0 -20 3 -51 6 -70 6 -25 5 -32 -4 -26 -9 5 -12 0 -9 -16 2 -19 10 -25 36
-27 35 -4 44 13 12 23 -31 10 -24 21 30 43 28 12 50 17 50 11 0 -5 -6 -9 -14
-9 -8 0 -16 -7 -20 -15 -6 -17 9 -20 20 -4 5 8 10 6 16 -5 11 -20 37 -21 44
-2 4 10 21 14 52 14 37 0 42 -2 25 -9 -13 -4 -23 -14 -22 -21 0 -10 2 -10 6 0
3 8 30 12 86 11 78 -1 80 -3 20 -24 -13 -4 -23 -14 -23 -21 0 -18 8 -18 26 1
17 17 34 20 34 6 0 -5 -8 -12 -17 -14 -10 -3 41 -2 112 1 72 2 132 6 134 8 2
2 -38 4 -89 4 -160 0 -93 9 95 13 99 2 171 1 161 -1 -15 -3 -16 -6 -5 -14 10
-7 3 -8 -21 -4 -22 4 -31 3 -25 -3 6 -5 28 -12 50 -14 22 -3 5 -4 -38 -3 -42
0 -77 -2 -77 -6 0 -9 7 -10 84 -12 37 -1 61 -6 63 -13 4 -10 -27 -13 -134 -11
-101 1 -123 3 -83 8 l55 7 -55 3 c-30 2 -62 4 -70 6 -8 1 -31 3 -50 5 -22 2
-10 5 35 9 l70 6 -73 2 c-58 2 -74 -1 -79 -14 -5 -13 -16 -15 -62 -9 -31 4
-61 11 -67 16 -7 5 -16 9 -20 7 -20 -5 -134 14 -140 24 -4 7 7 8 37 3 37 -6
42 -5 32 7 -15 17 -77 12 -94 -8 -7 -8 -30 -14 -56 -14 -40 0 -45 -3 -54 -29
l-10 -29 -117 -1 c-79 -1 -112 2 -102 9 8 5 10 10 5 10 -6 0 -16 -5 -22 -11
-9 -9 -66 -9 -225 0 -117 6 -275 11 -350 11 -76 0 -138 4 -138 8 0 5 -31 4
-70 -1 -38 -6 -70 -13 -70 -17 0 -8 600 -24 915 -25 l210 0 13 29 14 28 72 -7
c39 -3 132 -15 206 -25 74 -11 208 -24 296 -31 179 -12 205 -8 233 43 13 22
13 30 2 51 -7 14 -10 30 -7 36 4 6 0 14 -8 17 -9 3 -16 14 -16 24 0 36 -23 42
-142 35 -100 -6 -261 0 -551 21 -81 6 -88 9 -100 33 -8 17 -23 27 -47 32 -19
4 -213 12 -430 18 -217 6 -451 14 -520 17 -69 3 -129 2 -133 -2z m1236 -126
c15 -15 16 -33 3 -45 -5 -4 -6 -3 -3 3 12 20 -18 36 -47 25 -15 -6 -35 -7 -48
-2 -23 9 -23 9 22 24 28 10 61 7 73 -5z m197 -13 c-7 -9 -16 -12 -19 -7 -3 5
-13 12 -21 15 -8 3 0 6 19 6 29 1 32 -1 21 -14z m417 -20 c-35 -34 -108 -43
-157 -21 l-35 16 71 -2 c52 -1 78 4 95 16 38 27 58 20 26 -9z m-304 -42 c-7
-2 -19 -2 -25 0 -7 3 -2 5 12 5 14 0 19 -2 13 -5z m364 -15 c-3 -8 -6 -5 -6 6
-1 11 2 17 5 13 3 -3 4 -12 1 -19z m-400 -4 c-3 -3 -12 -4 -19 -1 -8 3 -5 6 6
6 11 1 17 -2 13 -5z m428 -24 c3 -6 -1 -7 -9 -4 -18 7 -21 14 -7 14 6 0 13 -4
16 -10z m-3 -42 c-6 -6 -15 -8 -19 -4 -4 4 -1 11 7 16 19 12 27 3 12 -12z"/>
<path d="M11792 3994 c-41 -29 -23 -84 28 -84 32 0 50 17 50 46 0 20 -32 54
-50 54 -3 0 -16 -7 -28 -16z"/>
<path d="M11927 3992 c-23 -25 -21 -58 4 -76 28 -19 61 -7 74 29 8 23 6 30
-14 46 -29 24 -43 24 -64 1z"/>
<path d="M12068 3999 c-25 -14 -23 -64 3 -83 23 -16 47 -12 67 12 17 22 15 39
-8 62 -22 22 -37 24 -62 9z"/>
<path d="M16560 3894 c-46 -20 -87 -60 -113 -109 -25 -48 -34 -171 -18 -231
15 -57 62 -117 107 -139 49 -24 141 -31 188 -15 70 23 136 103 136 165 0 22
-4 25 -35 25 -25 0 -35 -4 -35 -15 0 -9 -9 -33 -20 -54 -24 -49 -76 -75 -136
-68 -92 10 -139 76 -139 197 0 86 20 138 67 172 67 47 170 29 209 -37 17 -29
27 -35 55 -35 19 0 34 5 34 10 0 18 -37 84 -57 102 -51 47 -172 63 -243 32z"/>
<path d="M13723 3893 c9 -2 23 -2 30 0 6 3 -1 5 -18 5 -16 0 -22 -2 -12 -5z"/>
<path d="M14787 3886 c-20 -7 -43 -19 -51 -25 -22 -18 -46 -76 -46 -110 0 -28
3 -31 30 -31 26 0 31 5 40 39 11 43 50 81 82 81 58 0 102 -57 87 -114 -10 -38
-32 -61 -104 -109 -102 -68 -134 -107 -148 -184 l-6 -33 164 0 165 0 0 30 0
29 -126 3 -126 3 23 29 c12 15 52 48 88 72 116 76 142 109 143 184 0 84 -47
135 -134 145 -25 3 -59 -1 -81 -9z"/>
<path d="M15131 3741 c-83 -119 -111 -167 -111 -190 l0 -31 105 0 105 0 0 -60
c0 -60 0 -60 30 -60 28 0 29 1 32 58 3 56 3 57 36 60 26 3 32 8 32 27 0 19 -6
24 -32 27 l-33 3 -3 163 -2 162 -25 0 c-19 0 -43 -29 -134 -159z m96 -168 c-3
-2 -37 -3 -76 -1 l-71 3 73 109 72 109 3 -108 c1 -59 1 -109 -1 -112z"/>
<path d="M15350 3893 c0 -6 144 -420 166 -476 5 -14 16 -17 47 -15 l40 3 40
110 c21 61 61 172 87 248 l49 137 -39 0 -39 0 -67 -204 c-38 -113 -71 -203
-74 -201 -4 2 -35 94 -70 204 l-64 201 -38 0 c-21 0 -38 -3 -38 -7z"/>
<path d="M15920 3650 l0 -250 114 0 c130 0 184 14 233 62 48 46 66 112 61 217
-5 99 -23 142 -77 178 -51 34 -95 43 -218 43 l-113 0 0 -250z m275 166 c64
-42 86 -181 43 -266 -35 -68 -63 -83 -163 -88 l-85 -5 0 193 0 192 89 -4 c62
-3 96 -9 116 -22z"/>
<path d="M17276 3882 c-11 -33 -53 -63 -95 -69 -37 -5 -41 -8 -41 -34 0 -29 1
-29 60 -29 l60 0 2 -172 3 -173 33 -3 32 -3 0 250 0 251 -24 0 c-15 0 -27 -7
-30 -18z"/>
<path d="M17563 3890 c-39 -12 -79 -59 -93 -108 -13 -49 -13 -227 1 -277 26
-93 124 -137 217 -99 37 16 51 29 71 69 24 45 26 60 26 170 0 106 -3 126 -24
168 -13 28 -35 54 -52 62 -38 20 -106 27 -146 15z m112 -74 c31 -31 45 -85 45
-171 -1 -94 -14 -146 -45 -172 -48 -42 -111 -20 -136 45 -18 46 -14 223 4 259
33 64 90 81 132 39z"/>
<path d="M17903 3890 c-39 -12 -79 -59 -93 -108 -13 -49 -13 -227 1 -277 26
-93 124 -137 217 -99 37 16 51 29 71 69 24 45 26 60 26 170 0 106 -3 126 -24
168 -13 28 -35 54 -52 62 -38 20 -106 27 -146 15z m112 -74 c31 -31 45 -85 45
-171 -1 -94 -14 -146 -45 -172 -48 -42 -111 -20 -136 45 -18 46 -14 223 4 259
33 64 90 81 132 39z"/>
<path d="M18911 3683 c-47 -120 -91 -233 -98 -250 l-13 -33 39 0 38 0 28 75
27 75 102 0 101 0 26 -72 26 -73 42 -3 42 -3 -14 33 c-7 18 -51 131 -98 250
l-84 218 -40 0 -40 0 -84 -217z m163 33 c20 -54 36 -100 36 -102 0 -2 -34 -4
-75 -4 -41 0 -75 4 -75 9 0 5 11 40 25 77 38 102 47 125 51 122 1 -2 19 -48
38 -102z"/>
<path d="M13680 3876 c0 -2 7 -6 15 -10 8 -3 15 -1 15 4 0 6 -7 10 -15 10 -8
0 -15 -2 -15 -4z"/>
<path d="M12548 3833 c6 -2 18 -2 25 0 6 3 1 5 -13 5 -14 0 -19 -2 -12 -5z"/>
<path d="M12998 3823 c6 -2 18 -2 25 0 6 3 1 5 -13 5 -14 0 -19 -2 -12 -5z"/>
<path d="M13133 3813 c9 -2 23 -2 30 0 6 3 -1 5 -18 5 -16 0 -22 -2 -12 -5z"/>
<path d="M18280 3763 c-8 -3 -25 -15 -37 -26 l-23 -20 0 21 c0 18 -6 22 -30
22 l-30 0 0 -180 0 -180 35 0 35 0 0 129 c0 125 1 129 26 155 18 17 37 26 60
26 58 0 64 -15 64 -171 l0 -139 35 0 35 0 0 130 c0 126 1 132 25 155 16 17 35
25 59 25 61 0 66 -14 66 -171 l0 -139 35 0 35 0 0 145 c0 160 -8 192 -55 213
-44 20 -108 15 -149 -13 -20 -13 -36 -20 -36 -15 0 27 -103 50 -150 33z"/>
<path d="M12350 3621 c0 -4 52 -11 116 -13 81 -4 119 -9 124 -19 7 -10 11 -10
24 0 13 11 92 11 430 0 l415 -13 0 -35 c0 -20 2 -51 6 -68 5 -22 3 -33 -4 -33
-6 0 -11 -9 -11 -20 0 -14 6 -20 23 -19 21 0 21 1 2 9 -18 8 -18 9 -2 9 10 1
15 6 12 12 -4 6 3 13 16 16 22 6 22 7 3 14 -14 6 -10 8 18 8 47 1 68 -7 61
-25 -3 -9 2 -14 16 -14 12 0 24 6 27 13 3 9 23 14 57 14 46 1 49 0 25 -9 -16
-5 -28 -13 -28 -18 0 -18 13 -40 23 -40 7 0 7 4 -1 12 -25 25 -9 29 92 26 60
-2 98 -6 90 -11 -8 -5 -27 -7 -42 -6 -51 4 -70 -1 -68 -16 3 -21 16 -31 16
-12 0 10 8 17 20 17 11 0 20 -4 20 -10 0 -6 26 -9 63 -8 l62 1 -55 6 c-38 5
-47 8 -30 12 14 2 43 1 65 -3 22 -4 63 -7 90 -6 43 0 46 1 20 8 -20 5 4 8 73
9 72 1 101 -2 96 -10 -3 -6 -17 -8 -33 -4 -21 5 -24 4 -13 -6 6 -7 29 -12 50
-11 27 2 33 0 22 -8 -20 -13 -117 -13 -125 0 -3 6 -14 9 -23 9 -15 -1 -15 -2
1 -6 9 -2 17 -9 17 -14 0 -5 31 -9 69 -9 49 0 72 -4 81 -15 11 -13 1 -15 -76
-15 -49 0 -120 3 -159 7 -70 8 -70 8 -25 14 45 6 44 6 -15 8 -43 1 -56 4 -45
11 11 7 4 10 -27 10 -32 0 -43 -4 -43 -15 0 -8 -4 -15 -8 -15 -23 0 -122 24
-122 29 0 3 -30 7 -68 9 -37 1 -99 4 -138 6 l-71 4 -14 -31 c-10 -22 -22 -33
-39 -35 -15 -2 -20 0 -13 5 6 4 -36 8 -93 8 -57 0 -104 -2 -104 -5 0 -3 -48
-3 -107 -1 -60 2 -98 6 -85 10 13 3 -50 4 -139 2 -89 -2 -159 1 -156 5 5 9
-352 8 -361 -1 -3 -3 -3 -7 -1 -9 7 -6 1063 -34 1097 -29 23 4 36 13 42 29 8
21 16 24 60 24 28 0 114 -9 193 -20 287 -39 497 -51 536 -30 28 14 47 66 31
85 -7 8 -10 22 -6 30 3 9 -1 18 -9 21 -8 4 -15 17 -15 29 0 13 -5 27 -11 31
-6 4 -98 6 -203 5 -105 0 -274 5 -375 13 -160 12 -186 16 -197 32 -33 47 23
41 -614 64 -357 12 -530 13 -530 1z m1226 -126 c-32 -17 -82 -20 -90 -6 -9 13
12 19 69 20 l50 1 -29 -15z m157 8 c-7 -2 -21 -2 -30 0 -10 3 -4 5 12 5 17 0
24 -2 18 -5z m57 -2 c0 -18 -18 -21 -30 -6 -10 13 -9 15 9 15 11 0 21 -4 21
-9z m426 -26 c-3 -9 -10 -14 -15 -11 -5 3 -11 -1 -15 -9 -9 -24 -156 -17 -156
8 0 6 24 7 66 3 57 -6 68 -4 91 14 28 22 39 20 29 -5z m-609 0 c0 -10 -4 -12
-12 -5 -7 5 -15 7 -18 3 -4 -3 -7 -1 -7 5 0 7 8 12 18 12 10 0 19 -7 19 -15z
m593 -45 c0 -5 -4 -10 -10 -10 -5 0 -10 5 -10 10 0 6 5 10 10 10 6 0 10 -4 10
-10z m95 -40 c3 -5 2 -10 -4 -10 -5 0 -13 5 -16 10 -3 6 -2 10 4 10 5 0 13 -4
16 -10z m-820 -40 c3 -5 1 -10 -4 -10 -6 0 -11 5 -11 10 0 6 2 10 4 10 3 0 8
-4 11 -10z m442 4 c-3 -3 -12 -4 -19 -1 -8 3 -5 6 6 6 11 1 17 -2 13 -5z m378
-4 c-3 -5 -10 -10 -16 -10 -5 0 -9 5 -9 10 0 6 7 10 16 10 8 0 12 -4 9 -10z"/>
<path d="M11741 3521 c-17 -31 -13 -49 14 -67 31 -20 63 -10 71 23 9 35 -7 57
-44 61 -22 2 -34 -2 -41 -17z"/>
<path d="M11882 3528 c-18 -18 -15 -53 6 -71 24 -22 45 -21 65 1 34 37 15 82
-33 82 -14 0 -31 -5 -38 -12z"/>
<path d="M12022 3528 c-18 -18 -15 -53 6 -71 24 -22 45 -21 65 1 34 37 15 82
-33 82 -14 0 -31 -5 -38 -12z"/>
<path d="M7750 2680 l0 -830 620 0 c613 0 620 0 620 20 0 20 -7 20 -600 20
l-600 0 0 790 0 790 1935 0 c1928 0 1935 0 1935 20 0 20 -7 20 -1955 20
l-1955 0 0 -830z"/>
<path d="M13545 3450 c-3 -5 -2 -10 4 -10 5 0 13 5 16 10 3 6 2 10 -4 10 -5 0
-13 -4 -16 -10z"/>
<path d="M13621 3421 c-11 -7 -11 -10 0 -14 8 -4 -2 -4 -22 -1 -22 4 -39 1
-43 -5 -5 -7 8 -11 38 -11 46 0 60 8 48 27 -5 7 -13 9 -21 4z"/>
<path d="M13500 3410 c0 -5 5 -10 11 -10 5 0 7 5 4 10 -3 6 -8 10 -11 10 -2 0
-4 -4 -4 -10z"/>
<path d="M13988 3373 c12 -2 30 -2 40 0 9 3 -1 5 -23 4 -22 0 -30 -2 -17 -4z"/>
<path d="M12788 3353 c7 -3 16 -2 19 1 4 3 -2 6 -13 5 -11 0 -14 -3 -6 -6z"/>
<path d="M13133 3343 c9 -2 23 -2 30 0 6 3 -1 5 -18 5 -16 0 -22 -2 -12 -5z"/>
<path d="M14707 3193 c-4 -3 -7 -60 -7 -125 0 -111 1 -118 20 -118 17 0 20 7
20 50 l0 50 44 0 c24 0 51 3 60 6 12 4 16 0 16 -15 0 -30 26 -77 45 -85 22 -8
69 -8 90 0 10 4 23 21 31 38 l13 31 1 -38 c0 -31 3 -38 18 -35 15 3 17 18 20
126 2 117 2 122 -18 122 -18 0 -20 -6 -20 -67 l0 -68 -19 31 c-21 35 -57 47
-102 34 -25 -7 -29 -6 -29 11 0 40 -35 59 -108 59 -38 0 -72 -3 -75 -7z m129
-31 c43 -29 8 -82 -56 -82 l-40 0 0 45 0 45 43 0 c23 0 47 -4 53 -8z m142 -68
c43 -30 23 -114 -28 -114 -34 0 -50 23 -50 69 0 26 28 61 50 61 3 0 16 -7 28
-16z"/>
<path d="M15564 3165 c6 -28 4 -35 -9 -35 -8 0 -15 -7 -15 -15 0 -8 5 -15 10
-15 6 0 10 -32 10 -75 l0 -75 40 0 c29 0 40 4 40 15 0 8 -7 15 -15 15 -12 0
-15 13 -15 60 0 47 3 60 15 60 8 0 15 7 15 15 0 8 -7 15 -15 15 -8 0 -15 9
-15 19 0 33 -11 51 -32 51 -18 0 -19 -4 -14 -35z"/>
<path d="M16040 3160 c0 -38 -1 -39 -26 -30 -78 30 -141 -58 -99 -140 18 -34
33 -40 103 -38 48 1 52 3 52 26 l0 25 25 -27 c30 -33 94 -37 124 -7 39 39 33
130 -10 157 -26 16 -90 7 -114 -16 l-25 -23 0 56 c0 44 -3 57 -15 57 -11 0
-15 -11 -15 -40z m-20 -70 c38 -38 20 -110 -28 -110 -38 0 -52 17 -52 61 0 28
6 42 22 53 29 20 34 20 58 -4z m168 4 c43 -30 23 -114 -28 -114 -34 0 -50 23
-50 69 0 26 28 61 50 61 3 0 16 -7 28 -16z"/>
<path d="M16960 3165 c0 -24 -5 -35 -15 -35 -8 0 -15 -5 -15 -10 0 -6 -12 -3
-26 7 -21 13 -32 15 -55 6 -16 -6 -38 -9 -49 -6 -19 5 -20 1 -20 -86 0 -74 3
-91 15 -91 11 0 15 12 15 49 0 63 13 97 40 106 37 12 50 -11 50 -86 0 -55 3
-69 15 -69 12 0 15 15 15 75 0 60 3 75 15 75 12 0 15 -14 15 -63 0 -36 5 -68
12 -75 17 -17 58 -15 58 3 0 8 -7 15 -15 15 -12 0 -15 13 -15 60 0 47 3 60 15
60 8 0 15 7 15 15 0 8 -7 15 -15 15 -8 0 -15 9 -15 19 0 30 -11 51 -26 51 -9
0 -14 -12 -14 -35z"/>
<path d="M17650 3161 c0 -21 -5 -31 -15 -31 -8 0 -15 -7 -15 -15 0 -8 7 -15
15 -15 12 0 15 -14 15 -63 0 -36 5 -68 12 -75 17 -17 58 -15 58 3 0 8 -7 15
-15 15 -12 0 -15 13 -15 60 0 47 3 60 15 60 8 0 15 7 15 15 0 8 -6 15 -14 15
-9 0 -16 12 -18 27 -2 17 -10 29 -20 31 -14 3 -18 -3 -18 -27z"/>
<path d="M17820 3161 c0 -21 -5 -31 -15 -31 -8 0 -15 -7 -15 -15 0 -8 7 -15
15 -15 12 0 15 -14 15 -63 0 -36 5 -68 12 -75 17 -17 58 -15 58 3 0 8 -7 15
-15 15 -12 0 -15 13 -15 60 0 47 3 60 15 60 8 0 15 7 15 15 0 8 -6 15 -14 15
-9 0 -16 12 -18 27 -2 17 -10 29 -20 31 -14 3 -18 -3 -18 -27z"/>
<path d="M15250 3127 c-29 -14 -40 -57 -16 -57 9 0 16 5 16 10 0 14 46 31 65
24 18 -7 20 -33 3 -38 -7 -2 -32 -9 -55 -15 -47 -13 -63 -43 -44 -80 10 -18
20 -20 86 -19 53 1 75 5 75 14 0 7 -4 16 -10 19 -5 3 -10 35 -10 71 0 60 -2
65 -26 74 -33 13 -54 12 -84 -3z m80 -105 c0 -26 -20 -42 -53 -42 -24 0 -28 4
-25 22 3 21 17 28 71 37 4 0 7 -7 7 -17z"/>
<path d="M15442 3124 c-12 -8 -22 -10 -22 -5 0 6 -7 11 -15 11 -12 0 -15 -17
-15 -90 0 -73 3 -90 15 -90 11 0 15 12 15 48 0 58 18 96 48 100 14 2 22 10 22
23 0 23 -18 24 -48 3z"/>
<path d="M16480 3133 c-66 -24 -79 -141 -19 -173 34 -19 86 -12 106 13 l18 24
18 -24 c14 -17 28 -23 58 -23 56 0 79 15 79 49 0 33 -11 44 -62 60 -43 14 -57
29 -37 42 21 13 36 11 53 -7 9 -8 24 -14 34 -12 14 3 13 8 -11 32 -24 24 -34
28 -65 22 -20 -3 -43 -13 -49 -23 -27 -36 -12 -58 53 -81 28 -10 49 -24 49
-32 0 -21 -58 -25 -75 -6 -16 21 -76 21 -84 1 -7 -18 -57 -20 -74 -3 -28 28
-13 38 54 38 l67 0 -7 33 c-10 54 -60 87 -106 70z m62 -47 c15 -21 8 -26 -37
-26 -45 0 -52 5 -37 26 16 24 58 24 74 0z"/>
<path d="M17348 3125 c-16 -7 -28 -10 -28 -4 0 5 -7 9 -15 9 -12 0 -15 -17
-15 -90 0 -73 3 -90 15 -90 11 0 15 13 15 54 0 65 6 83 32 97 34 18 48 -5 48
-82 0 -55 3 -69 15 -69 11 0 15 12 15 49 0 27 4 61 10 75 10 28 30 35 30 11 0
-18 26 -20 33 -2 3 6 6 2 6 -10 1 -13 -7 -24 -19 -28 -25 -8 -35 -46 -21 -74
10 -18 20 -20 86 -19 53 1 75 5 75 14 0 7 -4 16 -10 19 -5 3 -10 35 -10 71 0
61 -1 65 -27 75 -16 6 -52 8 -83 5 -30 -4 -62 -7 -70 -8 -8 -1 -24 1 -35 5
-11 4 -32 0 -47 -8z m221 -24 c8 -5 11 -16 8 -25 -7 -17 -27 -22 -27 -7 0 5
-3 16 -6 25 -7 18 4 20 25 7z m11 -80 c0 -10 -7 -24 -15 -31 -13 -10 -15 -9
-15 12 0 14 3 28 7 31 12 13 23 7 23 -12z m-73 -33 c-3 -7 -5 -2 -5 12 0 14 2
19 5 13 2 -7 2 -19 0 -25z"/>
<path d="M18040 3133 c-66 -24 -79 -141 -19 -173 36 -20 86 -12 109 18 20 25
20 27 4 31 -9 1 -21 -4 -26 -13 -17 -31 -88 -14 -88 21 0 9 19 13 66 13 l67 0
-7 33 c-10 54 -60 87 -106 70z m62 -47 c15 -21 8 -26 -37 -26 -45 0 -52 5 -37
26 16 24 58 24 74 0z"/>
<path d="M18212 3124 c-12 -8 -22 -10 -22 -5 0 6 -7 11 -15 11 -12 0 -15 -17
-15 -90 0 -73 3 -90 15 -90 11 0 15 12 15 48 0 58 18 96 48 100 14 2 22 10 22
23 0 23 -18 24 -48 3z"/>
<path d="M15739 3083 c10 -27 27 -67 36 -90 18 -45 9 -83 -20 -83 -8 0 -15 -7
-15 -15 0 -27 48 -18 64 13 13 26 86 210 86 218 0 2 -8 4 -18 4 -14 0 -23 -15
-37 -60 -17 -55 -35 -87 -35 -61 0 6 -9 35 -21 66 -15 40 -26 55 -40 55 -18 0
-18 -1 0 -47z"/>
<path d="M10114 3006 c-33 -15 -44 -33 -44 -72 0 -28 30 -50 84 -60 84 -15 98
-84 16 -84 -39 0 -47 5 -75 45 -11 16 -16 17 -26 8 -15 -15 5 -59 34 -75 26
-13 100 -12 127 2 16 9 25 9 33 1 16 -16 57 -14 57 4 0 8 -7 15 -15 15 -12 0
-15 13 -15 60 0 47 3 60 15 60 8 0 15 7 15 15 0 8 -6 15 -14 15 -9 0 -16 12
-18 27 -3 32 -38 46 -38 17 0 -16 -1 -17 -12 -1 -13 16 -59 37 -81 37 -7 -1
-26 -7 -43 -14z m101 -63 c5 -18 15 -33 22 -33 7 0 13 -7 13 -16 0 -9 -6 -13
-12 -10 -7 2 -37 12 -66 21 -54 17 -69 32 -58 61 4 11 17 14 48 12 39 -3 44
-6 53 -35z"/>
<path d="M9753 2998 c-12 -6 -27 -24 -32 -41 -14 -38 -14 -37 8 -37 12 0 21 9
25 24 10 41 68 46 81 6 9 -27 -9 -55 -50 -80 -42 -26 -75 -66 -75 -91 0 -17 9
-19 80 -19 64 0 80 3 80 15 0 12 -13 15 -60 15 -33 0 -60 4 -60 10 0 5 21 23
48 41 60 41 72 56 72 93 0 37 -7 49 -37 65 -26 13 -51 13 -80 -1z"/>
<path d="M10420 2989 c0 -14 5 -19 17 -17 26 5 29 38 4 38 -15 0 -21 -6 -21
-21z"/>
<path d="M11240 2970 c0 -38 -1 -39 -26 -30 -36 14 -71 3 -99 -34 -17 -22 -25
-26 -25 -14 0 28 -50 60 -84 54 -35 -7 -66 -33 -66 -55 -1 -10 -6 -6 -15 10
-18 33 -66 52 -99 39 -13 -5 -33 -6 -45 -3 -17 4 -21 1 -21 -18 0 -20 -1 -21
-12 -6 -19 24 -64 38 -92 27 -13 -5 -33 -6 -45 -3 -21 5 -21 3 -21 -121 0
-105 2 -126 15 -126 11 0 15 11 15 39 l0 38 48 -4 c38 -4 51 -1 70 17 l22 21
0 -56 c0 -42 3 -55 15 -55 11 0 15 11 15 39 l0 39 41 -5 c46 -7 85 10 95 40 6
20 7 20 16 1 17 -31 40 -44 79 -44 29 0 42 6 59 28 20 25 20 27 4 31 -9 1 -21
-4 -26 -13 -17 -31 -88 -14 -88 21 0 9 18 13 64 13 61 0 64 -1 76 -30 17 -41
37 -50 104 -48 l56 2 0 123 c0 103 -2 123 -15 123 -11 0 -15 -11 -15 -40z
m-522 -78 c30 -38 4 -102 -42 -102 -50 0 -69 77 -27 111 23 19 48 16 69 -9z
m170 0 c30 -38 4 -102 -42 -102 -50 0 -69 77 -27 111 23 19 48 16 69 -9z m164
4 c15 -21 8 -26 -37 -26 -45 0 -52 5 -37 26 16 24 58 24 74 0z m168 4 c38 -38
20 -110 -28 -110 -38 0 -52 17 -52 61 0 28 6 42 22 53 29 20 34 20 58 -4z"/>
<path d="M11474 2885 c27 -110 33 -125 51 -125 18 0 24 13 45 95 13 52 27 92
31 87 4 -4 17 -47 29 -95 20 -77 26 -88 44 -85 16 2 25 23 52 123 18 66 33
121 34 123 0 1 -8 2 -19 2 -15 0 -23 -17 -43 -97 l-25 -98 -12 45 c-39 141
-42 150 -61 150 -19 0 -21 -7 -61 -150 l-12 -45 -18 75 c-10 41 -21 85 -24 98
-3 13 -13 22 -24 22 -17 0 -16 -8 13 -125z"/>
<path d="M11800 2989 c0 -14 5 -19 17 -17 26 5 29 38 4 38 -15 0 -21 -6 -21
-21z"/>
<path d="M10427 2943 c-4 -3 -7 -46 -7 -95 0 -81 2 -88 20 -88 18 0 20 7 20
63 0 65 11 87 42 87 11 0 18 7 18 20 0 22 -12 25 -40 10 -13 -7 -21 -7 -25 0
-7 12 -19 13 -28 3z"/>
<path d="M11807 2943 c-4 -3 -7 -46 -7 -95 0 -81 2 -88 20 -88 18 0 20 7 20
63 0 65 11 87 42 87 11 0 18 7 18 20 0 22 -12 25 -40 10 -13 -7 -21 -7 -25 0
-7 12 -19 13 -28 3z"/>
<path d="M12030 2943 c-66 -24 -79 -141 -19 -173 34 -19 86 -12 106 13 l18 24
18 -24 c14 -17 28 -23 58 -23 56 0 79 15 79 49 0 33 -11 44 -62 60 -43 14 -57
29 -37 42 21 13 36 11 53 -7 9 -8 24 -14 34 -12 14 3 13 8 -11 32 -24 24 -34
28 -65 22 -20 -3 -43 -13 -49 -23 -27 -36 -12 -58 53 -81 28 -10 49 -24 49
-32 0 -21 -58 -25 -75 -6 -16 21 -76 21 -84 1 -7 -18 -57 -20 -74 -3 -28 28
-13 38 54 38 l67 0 -7 33 c-10 54 -60 87 -106 70z m62 -47 c15 -21 8 -26 -37
-26 -45 0 -52 5 -37 26 16 24 58 24 74 0z"/>
<path d="M12788 2152 c-17 -11 -28 -26 -28 -39 0 -29 -4 -29 -317 -4 -131 11
-285 22 -343 25 l-105 6 -63 -56 -64 -57 5 -66 c3 -36 7 -145 10 -241 2 -96 8
-210 12 -252 l8 -77 55 -17 c31 -8 82 -29 114 -45 31 -16 64 -29 73 -29 18 0
93 36 116 56 18 16 260 23 345 10 47 -7 52 -10 58 -37 3 -19 13 -30 28 -34 13
-3 158 -12 323 -19 l300 -14 31 -37 c42 -50 59 -40 49 29 -12 91 -12 90 20 97
45 9 -59 17 -319 27 -137 5 -221 12 -223 19 -11 31 -30 45 -58 40 -28 -4 -28
-5 -8 -12 12 -4 25 -16 28 -26 4 -11 14 -23 23 -28 19 -10 159 -19 342 -22 69
-1 130 -4 137 -6 6 -3 14 -16 18 -31 3 -15 9 -36 12 -47 5 -19 5 -19 -18 1
-30 27 -65 32 -309 40 -107 3 -204 7 -215 9 -11 2 -43 4 -72 4 -49 1 -52 3
-70 39 -17 34 -22 37 -70 42 -64 7 -96 30 -43 31 33 0 34 1 11 10 -14 5 -31 7
-39 4 -7 -3 -22 0 -33 5 -15 9 -24 6 -46 -16 -32 -32 -104 -43 -166 -26 -36
10 -38 9 -53 -20 -10 -19 -21 -28 -30 -24 -8 3 -13 2 -9 -3 3 -5 -11 -15 -30
-21 -32 -10 -41 -8 -109 24 -42 20 -88 39 -104 42 -27 5 -30 11 -37 58 -4 28
-9 123 -11 211 -5 200 -10 295 -19 317 -5 12 10 32 52 73 l58 56 95 -6 c52 -3
210 -15 350 -26 140 -10 271 -20 290 -22 33 -2 35 0 38 30 5 55 22 57 374 38
172 -10 315 -19 317 -21 2 -2 6 -23 8 -48 4 -35 1 -50 -14 -70 -19 -24 -19
-25 4 -153 12 -70 27 -138 33 -151 5 -13 10 -40 10 -60 0 -55 18 -109 41 -126
11 -7 27 -35 34 -61 14 -45 14 -47 -10 -71 -29 -29 -30 -34 -11 -34 25 0 58
51 51 78 -3 13 -8 37 -11 52 l-6 27 279 5 c153 2 284 8 291 12 32 19 -12 26
-173 26 -151 0 -174 2 -169 15 8 20 -20 20 -40 0 -8 -8 -21 -15 -28 -15 -11 0
-11 2 0 9 20 12 -35 21 -132 21 -46 0 -75 4 -66 9 8 4 92 5 185 1 94 -4 152
-7 130 -8 -25 -1 -36 -5 -29 -12 5 -5 30 -6 59 -2 28 5 69 4 93 -1 51 -10 105
-1 81 14 -7 5 -36 9 -64 8 -27 0 -59 0 -70 2 -11 1 51 5 137 8 105 4 161 10
170 19 10 9 -59 12 -344 12 -272 0 -358 3 -365 13 -6 6 -13 29 -17 50 l-7 37
121 0 120 0 188 69 c210 77 403 141 428 141 23 0 11 24 -15 30 -12 3 -22 10
-22 15 0 12 -30 8 -44 -6 -5 -5 0 -9 15 -10 14 0 -8 -11 -50 -24 -41 -13 -76
-22 -78 -20 -3 2 7 7 22 11 14 3 26 10 26 16 0 5 -10 6 -22 3 -54 -16 -88 -27
-168 -54 -82 -28 -119 -42 -206 -82 -62 -28 -334 -26 -334 2 0 5 24 6 53 3 90
-11 229 13 346 57 58 23 153 56 211 76 58 19 124 41 148 50 43 15 56 33 25 33
-17 0 -251 -79 -446 -150 -71 -25 -110 -33 -196 -37 -120 -6 -151 2 -151 42 0
13 -4 27 -10 30 -12 7 -8 53 8 82 14 26 16 82 3 115 l-9 24 -319 17 c-175 10
-325 17 -333 16 -8 0 -27 -8 -42 -17z m911 -398 c2 -2 -37 -4 -88 -4 -52 0
-90 4 -87 9 5 8 165 3 175 -5z"/>
<path d="M10224 2100 c-46 -18 -84 -101 -84 -181 0 -41 -3 -49 -19 -49 -55 0
-283 23 -396 40 -77 11 -134 15 -139 10 -24 -24 153 -53 442 -71 106 -7 180
-16 184 -23 14 -21 8 -36 -17 -42 -20 -5 -24 -11 -19 -27 6 -18 3 -19 -32 -14
-22 4 -69 7 -106 7 -58 0 -67 2 -61 16 5 14 17 16 77 11 67 -5 121 3 100 15
-5 3 -39 9 -76 13 -53 5 -74 3 -103 -11 -26 -12 -39 -14 -47 -6 -6 6 -17 8
-25 5 -8 -3 -13 0 -11 8 2 8 -7 14 -22 15 -14 1 -74 12 -134 23 -123 24 -146
25 -146 11 0 -5 8 -10 17 -10 14 0 13 -3 -5 -20 -22 -21 -29 -45 -14 -54 14
-9 327 -45 450 -52 122 -7 122 -7 122 -32 0 -13 5 -53 12 -88 6 -35 9 -66 7
-69 -3 -2 -68 -14 -144 -25 -137 -20 -176 -33 -142 -46 15 -5 274 26 345 41
20 5 22 2 22 -40 0 -25 -1 -45 -2 -46 -2 0 -25 -2 -53 -5 -79 -8 -187 -24
-196 -30 -5 -3 -9 -10 -9 -16 0 -11 128 -5 177 8 22 6 24 3 38 -91 11 -71 9
-71 142 -56 65 7 132 15 148 18 18 3 25 1 18 -4 -6 -4 -34 -39 -62 -77 -39
-53 -51 -77 -51 -105 0 -40 23 -81 46 -81 8 0 14 -7 14 -16 0 -23 65 -12 100
16 56 46 34 42 664 126 219 30 226 33 287 118 49 67 35 114 -49 167 -78 49
-173 33 -190 -33 -5 -22 -16 -35 -33 -39 -40 -11 -187 -10 -194 2 -8 13 30 56
67 75 14 7 84 21 155 29 342 42 332 40 370 76 44 44 48 61 28 144 -16 69 -37
105 -61 105 -24 0 -26 22 -3 46 21 23 22 27 10 81 -7 32 -20 82 -29 111 l-16
52 -65 0 c-36 0 -145 -7 -241 -15 -252 -21 -245 -21 -257 18 l-9 32 -344 -4
c-334 -3 -344 -3 -359 17 -20 25 -49 33 -77 22z m61 -47 l22 -26 274 12 c151
6 302 14 336 17 l63 6 16 -41 16 -41 82 0 c44 1 167 7 271 14 122 8 192 10
196 3 4 -5 14 -44 24 -88 13 -63 14 -82 4 -101 -22 -40 -41 -52 -87 -54 -25
-1 -66 -5 -91 -8 -25 -2 -89 -8 -141 -11 -52 -4 -116 -8 -142 -10 -68 -5 -60
12 10 20 31 4 66 8 77 10 11 2 28 4 38 4 9 1 17 6 17 12 0 8 -23 10 -79 5
-116 -10 -135 -17 -139 -49 -6 -48 22 -51 236 -33 240 20 326 21 342 1 6 -7
17 -44 23 -80 l11 -65 -31 -31 c-30 -30 -34 -31 -229 -55 -110 -13 -216 -26
-236 -29 -27 -3 -38 -1 -38 9 0 13 66 26 136 26 17 0 37 7 44 15 15 18 15 18
-91 4 -97 -13 -119 -22 -119 -49 0 -24 -31 -57 -66 -70 -20 -8 -24 -15 -20
-37 9 -49 29 -58 119 -56 130 3 167 11 167 34 0 46 45 79 105 79 29 0 101 -57
116 -92 10 -25 8 -33 -16 -69 -55 -78 -37 -74 -510 -134 -302 -39 -399 -57
-410 -75 -10 -17 -85 16 -85 38 0 9 -7 13 -20 9 -17 -4 -19 -1 -14 21 9 38 52
110 72 121 9 5 78 19 152 31 237 38 215 31 215 69 0 20 -6 36 -13 39 -10 3
-13 -4 -10 -24 l3 -29 -100 -1 c-55 -1 -158 -9 -230 -18 -71 -9 -163 -20 -204
-23 -69 -6 -74 -5 -67 12 7 18 6 18 -12 2 -18 -17 -20 -17 -26 -1 -5 12 4 28
25 50 31 32 32 35 26 101 -9 108 -57 444 -70 488 l-12 40 -3 -41 c-3 -36 -6
-41 -23 -37 -38 10 -19 143 28 195 23 25 44 22 68 -9z m-585 -230 c0 -8 -47
-33 -62 -33 -4 0 -8 9 -8 20 0 16 7 20 35 20 19 0 35 -3 35 -7z m131 -20 c13
-16 12 -17 -3 -4 -10 7 -18 15 -18 17 0 8 8 3 21 -13z m-72 -12 c9 -16 8 -18
-8 -14 -24 6 -36 33 -16 33 8 0 19 -9 24 -19z m114 -28 c-7 -2 -19 -2 -25 0
-7 3 -2 5 12 5 14 0 19 -2 13 -5z m351 -35 c11 -54 18 -96 23 -145 4 -48 3
-53 -15 -53 -17 0 -21 9 -28 53 -8 61 -12 149 -7 160 8 15 23 6 27 -15z m46
-360 c-1 -7 -7 -24 -15 -38 l-14 -25 -1 31 c0 17 3 34 7 37 10 11 23 8 23 -5z"/>
<path d="M11522 1880 c0 -14 2 -19 5 -12 2 6 2 18 0 25 -3 6 -5 1 -5 -13z"/>
<path d="M11102 1875 c-9 -11 -10 -20 -3 -33 9 -15 10 -15 11 6 0 19 5 22 44
22 25 0 48 5 51 10 10 17 -88 11 -103 -5z"/>
<path d="M11350 1850 c-12 -8 -10 -10 8 -10 13 0 20 4 17 10 -7 12 -6 12 -25
0z"/>
<path d="M11547 1644 c-3 -4 -4 -17 -1 -29 5 -22 2 -23 -123 -35 -166 -16
-204 -32 -58 -24 143 8 186 15 198 36 12 18 -3 65 -16 52z"/>
<path d="M11170 1600 c0 -5 13 -10 29 -10 17 0 33 5 36 10 4 6 -8 10 -29 10
-20 0 -36 -4 -36 -10z"/>
<path d="M11110 1583 c0 -5 5 -15 10 -23 8 -12 10 -11 10 8 0 12 -4 22 -10 22
-5 0 -10 -3 -10 -7z"/>
<path d="M11150 1550 c0 -5 5 -10 10 -10 6 0 10 5 10 10 0 6 -4 10 -10 10 -5
0 -10 -4 -10 -10z"/>
<path d="M10400 1343 c-14 -2 -39 -6 -57 -8 -17 -3 -34 -13 -37 -22 -5 -12 -3
-13 6 -6 7 6 56 13 108 17 52 4 111 11 130 15 28 7 20 9 -45 9 -44 -1 -91 -2
-105 -5z"/>
<path d="M11987 2053 c-10 -16 3 -163 14 -163 5 0 9 28 8 63 -1 73 -11 118
-22 100z"/>
<path d="M12565 2035 c-99 -7 -189 -13 -199 -14 -11 -1 -17 -4 -13 -7 3 -3 94
-1 202 6 l197 13 306 -38 c169 -21 309 -40 311 -42 5 -3 49 -292 45 -296 -2
-1 -141 7 -311 19 -280 20 -321 20 -453 8 -80 -7 -178 -14 -217 -14 -42 0 -73
-4 -73 -10 0 -5 12 -10 28 -10 15 0 221 -11 457 -25 538 -31 527 -31 561 -2
l27 23 -23 155 c-12 85 -25 157 -29 161 -3 3 -136 22 -296 42 -159 20 -301 38
-315 40 -14 2 -106 -2 -205 -9z m563 -374 c145 -11 266 -22 269 -25 3 -3 -6
-11 -20 -17 -20 -9 -54 -9 -145 0 -66 7 -123 11 -128 9 -17 -4 -554 25 -549
30 8 8 134 19 230 20 44 1 198 -7 343 -17z"/>
<path d="M14783 1940 c-52 -23 -83 -70 -83 -125 0 -75 35 -102 184 -142 103
-27 126 -43 126 -88 0 -114 -230 -110 -255 5 -6 26 -11 30 -42 30 -34 0 -34
-1 -28 -32 23 -107 101 -156 232 -145 68 5 115 27 146 68 25 34 26 116 3 152
-20 30 -87 60 -183 82 -112 26 -145 76 -82 129 57 49 157 27 185 -40 12 -28
20 -34 44 -34 26 0 30 4 30 29 0 38 -38 92 -80 113 -48 24 -143 23 -197 -2z"/>
<path d="M15567 1943 c-4 -3 -8 -74 -8 -157 -1 -95 -4 -135 -8 -108 -14 85
-73 135 -164 139 -105 6 -168 -48 -183 -158 -22 -158 127 -266 267 -193 37 19
68 65 78 116 8 38 9 32 10 -44 l1 -88 35 0 35 0 0 250 0 250 -28 0 c-16 0 -32
-3 -35 -7z m-122 -207 c57 -58 55 -159 -6 -210 -93 -79 -207 45 -155 168 18
44 52 66 99 66 27 0 45 -7 62 -24z"/>
<path d="M16772 1913 c3 -35 6 -38 36 -41 31 -3 32 -2 32 37 0 40 -1 41 -36
41 -35 0 -35 -1 -32 -37z"/>
<path d="M17210 1865 l0 -84 -35 21 c-45 26 -132 22 -173 -9 -115 -86 -82
-308 51 -344 45 -12 100 -5 135 17 19 13 22 13 22 -1 0 -11 10 -15 35 -15 l35
0 0 250 0 250 -35 0 -35 0 0 -85z m-38 -130 c34 -31 42 -61 36 -127 -4 -42
-11 -57 -37 -80 -94 -84 -209 41 -156 169 20 47 41 62 90 63 29 0 48 -7 67
-25z"/>
<path d="M17600 1943 c0 -6 144 -420 166 -476 5 -14 16 -17 47 -15 l40 3 40
110 c21 61 61 172 87 248 l49 137 -39 0 -39 0 -67 -204 c-38 -113 -71 -203
-74 -201 -4 2 -35 94 -70 204 l-64 201 -38 0 c-21 0 -38 -3 -38 -7z"/>
<path d="M18337 1943 c-4 -3 -7 -116 -7 -250 l0 -243 35 0 35 0 0 250 0 250
-28 0 c-16 0 -32 -3 -35 -7z"/>
<path d="M9078 1909 c-22 -12 -24 -62 -4 -78 46 -38 111 25 71 69 -20 22 -41
25 -67 9z"/>
<path d="M9216 1907 c-22 -16 -18 -65 5 -80 47 -29 101 32 64 73 -21 23 -44
25 -69 7z"/>
<path d="M9344 1895 c-15 -23 -15 -27 0 -50 10 -15 26 -25 41 -25 15 0 31 10
41 25 15 23 15 27 0 50 -10 15 -26 25 -41 25 -15 0 -31 -10 -41 -25z"/>
<path d="M11999 1853 c-2 -23 -3 -32 -13 -66 -6 -20 -3 -40 8 -65 10 -24 17
-72 18 -133 2 -72 6 -95 16 -92 17 7 16 120 -2 203 -8 36 -12 86 -9 112 3 28
1 48 -6 52 -6 4 -11 0 -12 -11z"/>
<path d="M15804 1801 c-67 -41 -101 -118 -89 -200 17 -113 93 -171 202 -155
53 8 108 53 119 97 6 24 3 27 -21 27 -17 0 -38 -12 -59 -35 -50 -52 -118 -45
-156 17 -35 57 -33 58 116 58 l137 0 -6 45 c-9 62 -42 122 -80 145 -42 26
-121 26 -163 1z m131 -57 c13 -8 28 -29 34 -45 l10 -29 -99 0 -99 0 11 30 c5
17 20 37 31 45 28 19 81 19 112 -1z"/>
<path d="M16200 1813 c-8 -3 -25 -15 -37 -26 l-23 -20 0 21 c0 18 -6 22 -30
22 l-30 0 0 -180 0 -180 35 0 35 0 0 124 c0 119 1 126 26 155 21 25 33 31 65
31 26 0 46 -7 59 -20 18 -18 20 -33 20 -155 l0 -135 30 0 30 0 0 145 c0 158
-7 188 -51 211 -27 14 -99 18 -129 7z"/>
<path d="M16496 1798 c-96 -56 -113 -223 -32 -304 73 -73 208 -66 266 16 11
16 25 49 29 72 8 38 9 32 10 -44 l1 -88 35 0 35 0 0 180 0 180 -35 0 -35 0 -1
-87 c-1 -70 -3 -79 -8 -45 -14 85 -73 135 -164 139 -51 3 -69 0 -101 -19z
m159 -62 c57 -58 55 -159 -6 -210 -93 -79 -207 45 -155 168 18 44 52 66 99 66
27 0 45 -7 62 -24z"/>
<path d="M18054 1806 c-37 -16 -64 -51 -64 -83 0 -19 5 -23 30 -23 17 0 30 5
30 10 0 24 41 50 81 50 53 0 79 -15 79 -45 0 -31 -19 -41 -106 -56 -56 -10
-75 -18 -103 -46 -30 -30 -33 -38 -28 -76 7 -53 41 -83 102 -93 37 -5 55 -2
95 18 45 22 49 23 53 7 5 -20 48 -35 72 -25 20 7 20 56 0 56 -12 0 -15 20 -15
119 0 141 -8 167 -55 186 -43 19 -130 19 -171 1z m134 -273 c-32 -32 -90 -41
-123 -19 -54 36 -18 83 78 101 l62 11 3 -34 c3 -26 -3 -41 -20 -59z"/>
<path d="M18924 1801 c-67 -41 -101 -118 -89 -200 17 -113 93 -171 202 -155
53 8 108 53 119 97 6 24 3 27 -21 27 -17 0 -38 -12 -59 -35 -50 -52 -118 -45
-156 17 -35 57 -33 58 116 58 l137 0 -6 45 c-9 62 -42 122 -80 145 -42 26
-121 26 -163 1z m131 -57 c13 -8 28 -29 34 -45 l10 -29 -99 0 -99 0 11 30 c5
17 20 37 31 45 28 19 81 19 112 -1z"/>
<path d="M18476 1788 c4 -12 33 -92 64 -178 l57 -155 35 -3 c38 -3 36 -6 68
83 10 28 36 101 59 163 l40 112 -33 0 -34 0 -48 -142 -47 -143 -33 100 c-63
189 -61 185 -101 185 -31 0 -34 -2 -27 -22z"/>
<path d="M14116 1571 c-9 -14 34 -25 47 -12 8 8 8 11 0 11 -6 0 -18 3 -26 6
-8 3 -18 1 -21 -5z"/>
<path d="M9077 1442 c-34 -37 -15 -82 33 -82 51 0 69 55 28 84 -29 21 -41 20
-61 -2z"/>
<path d="M9218 1449 c-25 -14 -23 -64 3 -83 23 -16 47 -12 67 12 17 22 15 39
-8 62 -22 22 -37 24 -62 9z"/>
<path d="M9349 1439 c-33 -33 -11 -81 36 -81 30 0 40 7 49 39 8 24 -23 63 -49
63 -8 0 -24 -9 -36 -21z"/>
<path d="M9937 1434 c-3 -3 3 -15 13 -26 19 -21 20 -21 133 -4 125 19 171 36
97 36 -25 -1 -79 -5 -120 -10 -50 -7 -76 -7 -78 0 -4 11 -35 14 -45 4z"/>
<path d="M12695 1430 c39 -3 74 -3 80 2 5 4 -27 7 -70 6 l-80 -1 70 -7z"/>
<path d="M13485 1350 c3 -5 15 -10 26 -10 11 0 17 5 14 10 -3 6 -15 10 -26 10
-11 0 -17 -4 -14 -10z"/>
<path d="M14707 1283 c-4 -3 -7 -60 -7 -125 0 -111 1 -118 20 -118 17 0 20 7
20 50 l0 50 44 0 c24 0 51 3 60 6 12 4 16 0 16 -15 0 -30 26 -77 45 -85 22 -8
69 -8 90 0 10 4 23 21 31 38 l13 31 1 -38 c0 -31 3 -38 18 -35 15 3 17 18 20
126 2 117 2 122 -18 122 -18 0 -20 -6 -20 -67 l0 -68 -19 31 c-21 35 -57 47
-102 34 -25 -7 -29 -6 -29 11 0 40 -35 59 -108 59 -38 0 -72 -3 -75 -7z m129
-31 c43 -29 8 -82 -56 -82 l-40 0 0 45 0 45 43 0 c23 0 47 -4 53 -8z m142 -68
c43 -30 23 -114 -28 -114 -34 0 -50 23 -50 69 0 26 28 61 50 61 3 0 16 -7 28
-16z"/>
<path d="M15564 1255 c6 -28 4 -35 -9 -35 -8 0 -15 -7 -15 -15 0 -8 5 -15 10
-15 6 0 10 -32 10 -75 l0 -75 40 0 c29 0 40 4 40 15 0 8 -7 15 -15 15 -12 0
-15 13 -15 60 0 47 3 60 15 60 8 0 15 7 15 15 0 8 -7 15 -15 15 -8 0 -15 9
-15 19 0 33 -11 51 -32 51 -18 0 -19 -4 -14 -35z"/>
<path d="M16040 1250 c0 -38 -1 -39 -26 -30 -78 30 -141 -58 -99 -140 18 -34
33 -40 103 -38 48 1 52 3 52 26 l0 25 25 -27 c30 -33 94 -37 124 -7 39 39 33
130 -10 157 -26 16 -90 7 -114 -16 l-25 -23 0 56 c0 44 -3 57 -15 57 -11 0
-15 -11 -15 -40z m-20 -70 c38 -38 20 -110 -28 -110 -38 0 -52 17 -52 61 0 28
6 42 22 53 29 20 34 20 58 -4z m168 4 c43 -30 23 -114 -28 -114 -34 0 -50 23
-50 69 0 26 28 61 50 61 3 0 16 -7 28 -16z"/>
<path d="M16960 1255 c0 -24 -5 -35 -15 -35 -8 0 -15 -5 -15 -10 0 -6 -12 -3
-26 7 -21 13 -32 15 -55 6 -16 -6 -38 -9 -49 -6 -19 5 -20 1 -20 -86 0 -74 3
-91 15 -91 11 0 15 12 15 49 0 63 13 97 40 106 37 12 50 -11 50 -86 0 -55 3
-69 15 -69 12 0 15 15 15 75 0 60 3 75 15 75 12 0 15 -14 15 -63 0 -36 5 -68
12 -75 17 -17 58 -15 58 3 0 8 -7 15 -15 15 -12 0 -15 13 -15 60 0 47 3 60 15
60 8 0 15 7 15 15 0 8 -7 15 -15 15 -8 0 -15 9 -15 19 0 30 -11 51 -26 51 -9
0 -14 -12 -14 -35z"/>
<path d="M17650 1251 c0 -21 -5 -31 -15 -31 -8 0 -15 -7 -15 -15 0 -8 7 -15
15 -15 12 0 15 -14 15 -63 0 -36 5 -68 12 -75 17 -17 58 -15 58 3 0 8 -7 15
-15 15 -12 0 -15 13 -15 60 0 47 3 60 15 60 8 0 15 7 15 15 0 8 -6 15 -14 15
-9 0 -16 12 -18 27 -2 17 -10 29 -20 31 -14 3 -18 -3 -18 -27z"/>
<path d="M17820 1251 c0 -21 -5 -31 -15 -31 -8 0 -15 -7 -15 -15 0 -8 7 -15
15 -15 12 0 15 -14 15 -63 0 -36 5 -68 12 -75 17 -17 58 -15 58 3 0 8 -7 15
-15 15 -12 0 -15 13 -15 60 0 47 3 60 15 60 8 0 15 7 15 15 0 8 -6 15 -14 15
-9 0 -16 12 -18 27 -2 17 -10 29 -20 31 -14 3 -18 -3 -18 -27z"/>
<path d="M15250 1217 c-29 -14 -40 -57 -16 -57 9 0 16 5 16 10 0 14 46 31 65
24 18 -7 20 -33 3 -38 -7 -2 -32 -9 -55 -15 -47 -13 -63 -43 -44 -80 10 -18
20 -20 86 -19 53 1 75 5 75 14 0 7 -4 16 -10 19 -5 3 -10 35 -10 71 0 60 -2
65 -26 74 -33 13 -54 12 -84 -3z m80 -105 c0 -26 -20 -42 -53 -42 -24 0 -28 4
-25 22 3 21 17 28 71 37 4 0 7 -7 7 -17z"/>
<path d="M15442 1214 c-12 -8 -22 -10 -22 -5 0 6 -7 11 -15 11 -12 0 -15 -17
-15 -90 0 -73 3 -90 15 -90 11 0 15 12 15 48 0 58 18 96 48 100 14 2 22 10 22
23 0 23 -18 24 -48 3z"/>
<path d="M16480 1223 c-66 -24 -79 -141 -19 -173 34 -19 86 -12 106 13 l18 24
18 -24 c14 -17 28 -23 58 -23 56 0 79 15 79 49 0 33 -11 44 -62 60 -43 14 -57
29 -37 42 21 13 36 11 53 -7 9 -8 24 -14 34 -12 14 3 13 8 -11 32 -24 24 -34
28 -65 22 -20 -3 -43 -13 -49 -23 -27 -36 -12 -58 53 -81 28 -10 49 -24 49
-32 0 -21 -58 -25 -75 -6 -16 21 -76 21 -84 1 -7 -18 -57 -20 -74 -3 -28 28
-13 38 54 38 l67 0 -7 33 c-10 54 -60 87 -106 70z m62 -47 c15 -21 8 -26 -37
-26 -45 0 -52 5 -37 26 16 24 58 24 74 0z"/>
<path d="M17348 1215 c-16 -7 -28 -10 -28 -4 0 5 -7 9 -15 9 -12 0 -15 -17
-15 -90 0 -73 3 -90 15 -90 11 0 15 13 15 54 0 65 6 83 32 97 34 18 48 -5 48
-82 0 -55 3 -69 15 -69 11 0 15 12 15 49 0 27 4 61 10 75 10 28 30 35 30 11 0
-18 26 -20 33 -2 3 6 6 2 6 -10 1 -13 -7 -24 -19 -28 -25 -8 -35 -46 -21 -74
10 -18 20 -20 86 -19 53 1 75 5 75 14 0 7 -4 16 -10 19 -5 3 -10 35 -10 71 0
61 -1 65 -27 75 -16 6 -52 8 -83 5 -30 -4 -62 -7 -70 -8 -8 -1 -24 1 -35 5
-11 4 -32 0 -47 -8z m221 -24 c8 -5 11 -16 8 -25 -7 -17 -27 -22 -27 -7 0 5
-3 16 -6 25 -7 18 4 20 25 7z m11 -80 c0 -10 -7 -24 -15 -31 -13 -10 -15 -9
-15 12 0 14 3 28 7 31 12 13 23 7 23 -12z m-73 -33 c-3 -7 -5 -2 -5 12 0 14 2
19 5 13 2 -7 2 -19 0 -25z"/>
<path d="M18040 1223 c-66 -24 -79 -141 -19 -173 36 -20 86 -12 109 18 20 25
20 27 4 31 -9 1 -21 -4 -26 -13 -17 -31 -88 -14 -88 21 0 9 19 13 66 13 l67 0
-7 33 c-10 54 -60 87 -106 70z m62 -47 c15 -21 8 -26 -37 -26 -45 0 -52 5 -37
26 16 24 58 24 74 0z"/>
<path d="M18212 1214 c-12 -8 -22 -10 -22 -5 0 6 -7 11 -15 11 -12 0 -15 -17
-15 -90 0 -73 3 -90 15 -90 11 0 15 12 15 48 0 58 18 96 48 100 14 2 22 10 22
23 0 23 -18 24 -48 3z"/>
<path d="M15739 1173 c10 -27 27 -67 36 -90 18 -45 9 -83 -20 -83 -8 0 -15 -7
-15 -15 0 -27 48 -18 64 13 13 26 86 210 86 218 0 2 -8 4 -18 4 -14 0 -23 -15
-37 -60 -17 -55 -35 -87 -35 -61 0 6 -9 35 -21 66 -15 40 -26 55 -40 55 -18 0
-18 -1 0 -47z"/>
<path d="M12735 676 c-46 -20 -68 -60 -68 -124 0 -90 60 -141 142 -120 41 11
44 11 88 2 51 -10 83 3 98 39 l14 32 1 -37 c0 -27 4 -38 15 -38 11 0 15 12 15
49 0 63 13 97 40 106 37 12 50 -11 50 -86 0 -55 3 -69 15 -69 12 0 15 16 15
80 0 75 -2 81 -26 97 -21 13 -32 15 -55 6 -16 -6 -38 -9 -49 -6 -17 5 -20 0
-20 -28 l0 -34 -20 33 c-19 31 -36 38 -86 33 -14 -1 -23 6 -27 18 -11 43 -92
70 -142 47z m103 -53 c16 -24 17 -31 5 -53 -7 -14 -13 -42 -13 -62 0 -32 -4
-39 -25 -44 -39 -10 -73 4 -90 36 -20 39 -19 79 5 118 17 27 25 32 59 32 32 0
43 -5 59 -27z m110 -49 c15 -10 22 -25 22 -48 0 -46 -20 -68 -55 -64 -27 3
-30 7 -29 36 1 17 -2 32 -7 32 -17 0 -9 29 13 44 12 9 25 16 28 16 3 0 16 -7
28 -16z"/>
<path d="M9753 668 c-12 -6 -27 -24 -32 -41 -14 -38 -14 -37 8 -37 12 0 21 9
25 24 10 41 68 46 81 6 9 -27 -9 -55 -50 -80 -42 -26 -75 -66 -75 -91 0 -17 9
-19 80 -19 64 0 80 3 80 15 0 12 -13 15 -60 15 -33 0 -60 4 -60 10 0 5 21 23
48 41 60 41 72 56 72 93 0 37 -7 49 -37 65 -26 13 -51 13 -80 -1z"/>
<path d="M10077 674 c-4 -4 -7 -61 -7 -126 0 -111 1 -118 20 -118 17 0 20 7
20 50 l0 50 43 0 c23 0 52 3 65 6 21 6 22 4 22 -51 0 -48 2 -56 18 -53 14 3
17 17 20 87 2 61 -1 87 -10 92 -10 7 -11 12 0 29 6 11 12 24 12 28 0 11 -193
16 -203 6z m129 -32 c43 -29 8 -82 -56 -82 l-40 0 0 45 0 45 43 0 c23 0 47 -4
53 -8z"/>
<path d="M10770 555 c0 -103 3 -125 15 -125 11 0 15 19 17 93 l3 92 35 -92
c24 -64 39 -93 50 -93 11 0 28 29 53 93 l36 92 0 -92 c1 -86 2 -93 21 -93 19
0 20 7 20 125 l0 125 -27 0 c-26 0 -30 -6 -63 -95 -18 -52 -36 -95 -40 -95 -3
0 -21 43 -40 95 -29 82 -37 95 -57 95 -23 0 -23 -1 -23 -125z"/>
<path d="M11280 618 l0 -63 -23 29 c-19 23 -31 29 -65 29 -51 0 -79 -22 -88
-70 -7 -39 11 -89 37 -103 35 -19 88 -12 114 16 l25 27 0 -27 c0 -25 2 -26 59
-26 53 0 62 3 81 28 19 24 20 27 5 30 -9 2 -22 -4 -29 -13 -18 -25 -70 -16
-74 13 -3 21 0 22 59 22 l62 0 -7 33 c-8 45 -51 80 -88 73 -26 -5 -28 -4 -28
29 0 28 -4 35 -20 35 -18 0 -20 -7 -20 -62z m-62 -44 c43 -30 23 -114 -28
-114 -34 0 -50 23 -50 69 0 26 28 61 50 61 3 0 16 -7 28 -16z m174 -8 c14 -21
8 -26 -32 -26 -33 0 -40 3 -40 19 0 30 53 35 72 7z"/>
<path d="M11817 658 c-3 -13 -9 -44 -12 -70 -6 -40 -5 -48 8 -48 9 0 19 5 22
10 9 14 58 13 73 -2 15 -15 15 -61 0 -76 -19 -19 -66 -15 -78 8 -12 22 -40 27
-40 7 0 -28 40 -57 79 -57 56 0 86 27 86 79 0 53 -29 83 -79 83 -34 0 -37 2
-34 27 3 24 7 26 51 29 33 2 47 7 47 18 0 11 -14 14 -59 14 -53 0 -59 -2 -64
-22z"/>
<path d="M11997 658 c-3 -13 -9 -44 -12 -70 -6 -40 -5 -48 8 -48 9 0 19 5 22
10 9 14 58 13 73 -2 15 -15 15 -61 0 -76 -19 -19 -66 -15 -78 8 -12 22 -40 27
-40 7 0 -7 9 -23 20 -35 37 -39 140 -20 140 26 0 12 4 10 17 -8 23 -35 33 -40
74 -40 54 0 84 28 84 79 0 53 -29 83 -79 83 -34 0 -37 2 -34 27 3 24 7 26 51
29 33 2 47 7 47 18 0 11 -14 14 -59 14 -65 0 -63 4 -76 -92 -6 -40 -5 -48 8
-48 9 0 19 5 22 10 9 14 58 13 73 -2 7 -7 12 -24 12 -38 0 -14 -5 -31 -12 -38
-19 -19 -66 -15 -78 8 -6 11 -17 20 -25 20 -7 0 -16 13 -20 29 -9 40 -37 63
-80 63 -33 0 -36 2 -33 27 3 24 7 26 51 29 33 2 47 7 47 18 0 11 -14 14 -59
14 -53 0 -59 -2 -64 -22z"/>
<path d="M12320 660 c0 -18 7 -20 55 -20 51 0 69 -10 45 -25 -18 -11 -59 -102
-66 -144 -5 -34 -4 -41 10 -41 9 0 18 6 20 13 2 6 10 34 17 61 7 27 28 72 46
99 19 28 32 56 29 64 -4 9 -27 13 -81 13 -68 0 -75 -2 -75 -20z"/>
<path d="M13890 641 c0 -21 -5 -31 -15 -31 -8 0 -15 -4 -15 -9 0 -5 -14 -3
-30 6 -36 18 -80 10 -106 -19 -29 -31 -26 -114 5 -139 44 -36 131 -16 131 29
0 21 15 13 32 -18 15 -26 22 -30 63 -30 54 0 81 22 91 74 10 54 -20 98 -74
110 -31 6 -42 14 -44 30 -2 11 -11 22 -20 24 -14 3 -18 -3 -18 -27z m-73 -71
c21 -24 43 -26 43 -5 0 8 5 15 11 15 7 0 9 -9 5 -22 -3 -13 -6 -31 -6 -40 0
-10 -8 -18 -18 -18 -9 0 -23 -9 -30 -20 -14 -22 -51 -27 -70 -8 -21 21 -15 85
10 102 29 21 35 20 55 -4z m191 -38 c5 -46 -13 -72 -48 -72 -30 0 -30 0 -30
59 0 48 3 60 18 64 28 7 57 -18 60 -51z"/>
<path d="M10480 610 c-8 -5 -25 -7 -37 -3 -23 5 -23 4 -23 -86 0 -74 3 -91 15
-91 11 0 15 12 15 49 0 63 13 97 40 106 37 12 50 -11 50 -86 0 -55 3 -69 15
-69 12 0 15 15 15 79 0 71 -2 82 -22 95 -25 18 -46 20 -68 6z"/>
<path d="M13420 610 c-8 -5 -25 -7 -37 -3 -23 5 -23 4 -23 -86 0 -74 3 -91 15
-91 11 0 15 12 15 49 0 63 13 97 40 106 37 12 50 -11 50 -86 0 -55 3 -69 15
-69 12 0 15 15 15 79 0 71 -2 82 -22 95 -25 18 -46 20 -68 6z"/>
<path d="M13580 613 c-66 -24 -79 -141 -19 -173 36 -20 86 -12 109 18 20 25
20 27 4 31 -9 1 -21 -4 -26 -13 -17 -31 -88 -14 -88 21 0 9 19 13 66 13 l67 0
-7 33 c-10 54 -60 87 -106 70z m62 -47 c15 -21 8 -26 -37 -26 -45 0 -52 5 -37
26 16 24 58 24 74 0z"/>
<path d="M14282 604 c-12 -8 -22 -10 -22 -5 0 6 -7 11 -15 11 -12 0 -15 -17
-15 -90 0 -73 3 -90 15 -90 11 0 15 12 15 48 0 58 18 96 48 100 14 2 22 10 22
23 0 23 -18 24 -48 3z"/>
<path d="M11464 588 c40 -55 40 -63 7 -112 -29 -42 -30 -46 -12 -46 12 0 30
15 45 36 l24 36 24 -36 c15 -24 31 -36 46 -36 23 0 23 1 -12 48 l-35 49 30 41
c28 39 29 42 11 42 -11 0 -30 -12 -42 -27 l-22 -28 -20 28 c-11 15 -29 27 -40
27 -19 0 -20 -1 -4 -22z"/>
<path d="M9900 525 c0 -11 12 -15 50 -15 38 0 50 4 50 15 0 11 -12 15 -50 15
-38 0 -50 -4 -50 -15z"/>
<path d="M10600 450 c0 -11 5 -20 11 -20 8 0 8 -4 -1 -15 -6 -8 -10 -20 -8
-26 7 -21 38 21 38 52 0 22 -5 29 -20 29 -13 0 -20 -7 -20 -20z"/>
</g>
</svg>
